<?xml version="1.0" standalone="no"?>
<!DOCTYPE svg PUBLIC "-//W3C//DTD SVG 20010904//EN"
 "http://www.w3.org/TR/2001/REC-SVG-20010904/DTD/svg10.dtd">
<svg version="1.0" xmlns="http://www.w3.org/2000/svg"
 width="626.000000pt" height="626.000000pt" viewBox="0 0 626.000000 626.000000"
 preserveAspectRatio="xMidYMid meet">

<g transform="translate(0.000000,626.000000) scale(0.100000,-0.100000)"
fill="#000000" stroke="none">
<path d="M2965 5529 c-465 -38 -892 -199 -1262 -475 -104 -78 -328 -297 -418
-409 -299 -372 -485 -828 -536 -1314 -17 -161 -7 -473 20 -624 78 -439 249
-813 520 -1138 365 -437 850 -728 1396 -838 329 -66 735 -52 1081 38 656 172
1228 647 1543 1281 166 334 244 667 244 1045 0 206 -17 364 -58 546 -145 644
-558 1216 -1126 1557 -203 122 -481 234 -699 281 -217 46 -503 67 -705 50z
m489 -134 c422 -59 801 -225 1131 -496 76 -62 266 -253 334 -336 81 -100 208
-300 273 -434 161 -328 226 -596 235 -965 6 -223 -3 -337 -38 -524 -21 -106
-101 -365 -122 -394 -10 -14 -26 -3 -120 84 -60 56 -118 105 -129 109 -23 8
-73 1 -420 -64 -131 -25 -243 -45 -249 -45 -8 0 -9 11 -5 33 49 238 132 750
161 997 26 212 31 595 11 768 -42 357 -131 548 -370 788 -215 216 -405 314
-741 381 -125 24 -421 24 -519 0 -149 -38 -263 -115 -332 -228 l-37 -59 -71 0
c-166 0 -324 -83 -450 -237 -107 -128 -167 -280 -203 -505 -22 -142 -25 -643
-5 -808 26 -210 104 -659 129 -744 5 -17 1 -18 -37 -12 -23 4 -171 36 -328 72
-205 47 -293 64 -309 58 -13 -5 -88 -71 -168 -148 -80 -76 -148 -136 -151
-134 -8 9 -42 199 -55 307 -17 154 -7 474 21 631 102 579 406 1089 865 1452
309 244 730 416 1120 457 55 6 116 13 135 15 63 8 340 -4 444 -19z m-753 -921
c65 -69 205 -143 574 -304 270 -117 415 -182 420 -190 2 -3 -24 -4 -58 -2
-108 7 -235 -27 -261 -70 -8 -14 -6 -22 11 -39 l22 -22 73 21 c93 28 185 28
273 1 60 -18 69 -19 84 -5 14 13 19 13 41 -5 25 -19 24 -19 -170 -18 -175 1
-201 -1 -251 -20 -76 -29 -132 -71 -175 -132 -34 -47 -38 -50 -68 -42 -39 10
-120 10 -166 1 -33 -7 -36 -6 -57 31 -28 48 -93 103 -159 133 -47 22 -60 23
-296 23 l-246 0 -46 -32 -46 -33 0 43 c1 134 64 312 121 345 16 9 57 33 91 52
87 49 186 150 223 228 16 34 32 62 35 62 4 0 17 -12 31 -26z m92 -720 c57 -19
131 -83 160 -138 33 -62 31 -174 -5 -241 -34 -64 -90 -118 -153 -147 -71 -33
-228 -33 -297 -1 -124 57 -199 175 -206 325 l-4 87 43 60 c24 32 53 61 64 64
11 2 95 5 186 6 127 1 176 -3 212 -15z m1036 10 c62 -7 63 -8 108 -66 l45 -59
-4 -87 c-3 -68 -9 -99 -30 -144 -35 -76 -98 -142 -167 -175 -50 -25 -67 -28
-156 -28 -127 0 -182 23 -255 102 -60 65 -85 138 -77 219 11 106 92 203 197
235 31 9 257 11 339 3z m-1726 -115 c23 -10 23 -13 20 -122 -2 -62 2 -163 9
-225 14 -111 13 -113 -6 -110 -14 2 -29 25 -53 80 -68 157 -77 247 -34 343 21
48 27 51 64 34z m2129 -36 c34 -76 35 -154 4 -246 -36 -108 -78 -188 -93 -179
-9 6 -10 31 -3 102 5 52 10 152 10 222 0 110 2 128 18 137 31 18 43 12 64 -36z
m-2006 -105 c33 -229 201 -378 424 -378 109 0 231 51 295 122 61 67 88 133 94
228 l6 85 43 9 c24 5 60 5 85 0 l42 -9 7 -67 c8 -85 23 -130 63 -193 41 -64
83 -100 165 -139 60 -29 73 -31 170 -30 85 0 116 4 163 23 151 60 245 191 265
372 4 35 12 64 20 67 27 9 3 -377 -32 -508 -34 -130 -96 -230 -205 -333 -60
-57 -97 -80 -239 -150 -92 -46 -219 -105 -282 -132 -186 -79 -206 -75 -615
124 -163 80 -189 96 -260 163 -132 124 -189 245 -219 467 -16 114 -22 380 -9
367 5 -4 13 -44 19 -88z m-66 -413 c24 -64 23 -73 -8 -80 -67 -14 -100 -93
-62 -153 34 -54 107 -66 152 -25 17 15 20 15 28 3 15 -23 12 -29 -22 -51 -48
-30 -128 -22 -168 16 -75 72 -59 204 31 250 20 11 29 23 29 40 0 32 8 32 20 0z
m1968 0 c-4 -21 0 -28 29 -41 41 -20 83 -88 83 -135 0 -113 -123 -186 -216
-128 -37 22 -40 29 -23 46 8 8 20 6 45 -9 66 -39 140 1 151 81 5 36 2 44 -30
76 -19 19 -42 35 -51 35 -19 0 -20 11 -5 63 11 42 24 51 17 12z m-1911 -162
c17 -41 10 -61 -24 -74 -31 -11 -73 24 -73 60 0 35 17 51 53 51 23 0 31 -7 44
-37z m1917 21 c35 -34 3 -99 -45 -92 -36 5 -46 31 -26 72 18 39 45 47 71 20z
m-2504 -314 c173 -39 315 -72 316 -73 1 -1 5 -19 9 -39 l7 -38 -456 0 c-251 0
-455 3 -455 8 1 4 53 56 115 115 81 78 118 107 131 103 10 -3 160 -37 333 -76z
m1325 -241 c142 -60 201 -63 320 -17 50 19 107 43 128 52 l37 16 0 -199 0
-199 -32 -62 c-27 -50 -50 -76 -123 -134 -49 -39 -106 -93 -125 -119 l-35 -48
-15 23 c-18 30 -111 121 -178 176 -30 25 -64 66 -80 95 -27 51 -27 56 -30 261
-3 198 -3 208 15 203 10 -3 63 -24 118 -48z m-965 -41 c47 -179 88 -280 146
-359 l36 -49 -29 -10 c-70 -26 -91 -35 -133 -58 -162 -91 -227 -202 -257 -437
-9 -74 -19 -135 -23 -135 -4 0 -56 44 -116 98 -223 202 -385 414 -514 677 -56
113 -130 290 -130 311 0 2 227 4 505 4 l504 0 11 -42z m3105 -137 l90 -91
-453 0 c-248 0 -452 2 -452 4 0 4 22 66 23 66 174 37 676 124 687 119 8 -4 55
-48 105 -98z m-2341 -165 c15 -95 86 -198 190 -272 l29 -21 -39 -38 c-79 -77
-163 -94 -252 -49 -85 42 -142 136 -142 232 0 88 29 130 110 164 91 37 96 36
104 -16z m865 7 c69 -33 96 -86 88 -173 -6 -66 -24 -105 -75 -162 -91 -101
-218 -102 -312 -3 l-35 36 30 25 c94 77 119 100 139 133 23 37 50 105 61 154
7 32 14 31 104 -10z m1391 -30 c-22 -9 -49 -46 -50 -67 0 -10 -19 -40 -42 -66
-98 -110 -118 -133 -118 -140 0 -3 -8 -15 -18 -26 -9 -10 -33 -39 -52 -64 -19
-25 -48 -61 -65 -81 -40 -46 -88 -108 -98 -125 -10 -17 -56 -64 -62 -64 -3 0
-5 15 -5 34 0 47 -25 162 -45 211 -41 97 -116 176 -222 237 l-72 41 25 30 c14
16 31 42 40 58 l15 29 392 -1 c215 0 385 -3 377 -6z m-2538 -145 c8 -125 83
-234 195 -285 47 -22 66 -25 122 -21 36 3 81 13 99 22 l32 17 21 -47 c29 -70
101 -166 148 -198 l41 -29 45 37 c52 43 96 103 131 181 l25 54 46 -21 c64 -28
163 -22 226 15 97 57 165 165 174 278 3 38 9 69 12 69 20 -1 29 -24 35 -95 21
-239 50 -446 76 -551 31 -126 58 -319 47 -347 -13 -35 -354 -123 -569 -146
-140 -16 -388 -13 -525 4 -141 18 -330 64 -465 112 l-98 35 0 52 c0 67 22 198
54 317 15 60 33 175 45 305 33 330 27 304 72 313 4 0 9 -32 11 -71z m1599 -19
c114 -44 181 -84 232 -138 81 -87 105 -158 128 -380 l12 -124 -26 -22 c-42
-37 -189 -123 -291 -170 -106 -49 -106 -49 -106 33 0 46 -14 116 -64 337 -13
61 -32 182 -40 270 -9 88 -19 181 -22 207 l-6 47 54 -15 c29 -9 87 -29 129
-45z m-1731 24 c0 -40 -28 -314 -41 -403 -6 -41 -23 -124 -39 -185 -15 -60
-31 -139 -34 -175 -4 -36 -9 -78 -12 -93 l-6 -28 -116 61 c-65 34 -155 87
-201 117 l-83 56 7 86 c30 361 89 447 385 552 129 47 140 48 140 12z m2620
-167 c0 -2 -8 -10 -17 -17 -16 -13 -17 -12 -4 4 13 16 21 21 21 13z m-1881
-98 c28 -46 63 -97 77 -114 l25 -32 -24 -28 c-14 -16 -29 -24 -36 -20 -27 17
-90 108 -115 169 -27 62 -27 66 -11 91 9 14 20 24 24 21 4 -2 31 -41 60 -87z
m191 43 c0 -9 -11 -40 -25 -70 -25 -52 -26 -53 -45 -36 -34 31 -34 52 0 106
31 48 33 49 51 33 11 -9 19 -24 19 -33z m1530 -135 c0 -2 -8 -10 -17 -17 -16
-13 -17 -12 -4 4 13 16 21 21 21 13z m-70 -69 c0 -2 -12 -14 -27 -28 l-28 -24
24 28 c23 25 31 32 31 24z"/>
<path d="M1465 4023 c-26 -40 -32 -68 -15 -78 26 -16 89 82 67 104 -17 17 -24
14 -52 -26z"/>
<path d="M1229 3896 c-96 -66 -90 -195 11 -264 68 -46 177 -15 214 62 36 75
11 165 -56 206 -48 29 -123 27 -169 -4z m137 -55 c37 -23 49 -60 33 -108 -13
-40 -60 -66 -100 -56 -79 19 -99 130 -30 168 36 19 60 18 97 -4z"/>
<path d="M1563 3863 c-33 -6 -50 -31 -32 -48 11 -11 25 -12 64 -4 56 10 70 21
62 43 -6 16 -42 19 -94 9z"/>
<path d="M4969 3764 c-15 -18 -2 -47 24 -52 22 -5 42 35 26 54 -15 18 -33 18
-50 -2z"/>
<path d="M1543 3714 c-8 -22 17 -44 60 -51 33 -5 37 -3 37 16 0 16 -10 26 -35
37 -44 18 -54 18 -62 -2z"/>
<path d="M4750 3684 c-11 -12 -9 -19 11 -40 13 -14 36 -32 50 -40 23 -12 29
-11 39 2 11 12 9 19 -11 40 -13 14 -36 32 -50 40 -23 12 -29 11 -39 -2z"/>
<path d="M4960 3622 c-105 -57 -109 -200 -8 -276 37 -26 112 -27 159 0 48 27
82 96 76 153 -11 107 -134 174 -227 123z m110 -57 c36 -19 50 -43 50 -87 -1
-55 -46 -93 -101 -84 -41 6 -67 32 -75 73 -8 44 11 82 51 99 38 17 40 17 75
-1z"/>
<path d="M1424 3565 c-6 -15 59 -105 75 -105 16 0 33 29 25 42 -40 68 -87 97
-100 63z"/>
<path d="M4705 3454 c-15 -15 -15 -18 -1 -32 23 -23 111 -5 111 23 0 17 -8 20
-46 23 -33 2 -51 -2 -64 -14z"/>
<path d="M4816 3301 c-37 -38 -44 -70 -18 -79 14 -4 92 69 92 86 0 6 -8 16
-18 21 -15 8 -26 3 -56 -28z"/>
<path d="M4945 3206 c-18 -60 -14 -76 15 -76 19 0 37 39 42 95 2 24 -1 31 -19
33 -19 3 -24 -5 -38 -52z"/>
<path d="M2571 3970 c-93 -20 -171 -74 -144 -101 10 -10 28 -9 82 4 93 23 178
21 272 -4 64 -18 81 -20 94 -9 18 15 20 54 3 68 -43 34 -225 59 -307 42z"/>
<path d="M2580 3664 c-42 -18 -96 -68 -116 -107 -14 -27 -14 -30 11 -53 39
-36 55 -31 55 15 0 32 6 44 31 65 38 32 75 36 59 7 -17 -33 -11 -78 14 -108
46 -53 143 -27 161 44 6 24 7 24 25 8 22 -19 40 -13 40 15 0 28 -59 90 -105
111 -48 22 -127 24 -175 3z"/>
<path d="M3515 3666 c-39 -17 -105 -90 -105 -116 0 -31 30 -37 50 -10 l18 23
6 -30 c15 -67 87 -99 143 -64 42 26 52 62 24 90 -26 26 -26 37 -3 50 14 7 26
6 43 -6 38 -25 49 -44 49 -85 0 -45 13 -48 53 -13 27 24 27 26 13 54 -21 40
-68 85 -109 105 -42 19 -139 21 -182 2z"/>
<path d="M3154 3275 c-4 -9 2 -25 15 -39 26 -27 27 -67 3 -89 -22 -20 -44 -21
-89 -5 -28 10 -36 10 -43 -1 -20 -33 24 -61 95 -61 92 0 144 95 93 170 -26 38
-64 51 -74 25z"/>
<path d="M2741 3011 c-12 -12 -21 -25 -21 -30 0 -17 92 -132 134 -166 207
-169 503 -121 656 107 l41 62 -24 23 -23 24 -90 -23 c-121 -31 -414 -33 -543
-4 -47 10 -90 20 -97 23 -7 2 -22 -5 -33 -16z m214 -86 c55 -8 134 -15 175
-15 69 0 231 20 296 36 l26 7 -17 -27 c-10 -14 -43 -46 -75 -70 -111 -83 -265
-99 -380 -41 -64 32 -123 78 -146 113 -15 22 -15 24 3 18 10 -3 63 -13 118
-21z"/>
<path d="M1505 2169 c-101 -29 -136 -157 -69 -252 31 -43 97 -98 163 -135 l37
-21 65 43 c119 80 159 135 161 220 1 85 -57 146 -142 146 -25 0 -55 -7 -67
-15 -18 -12 -25 -13 -49 -1 -44 21 -66 25 -99 15z m283 -104 c-3 -3 -9 2 -12
12 -6 14 -5 15 5 6 7 -7 10 -15 7 -18z"/>
</g>
</svg>
